<?xml version="1.0" encoding="UTF-8" standalone="no"?>
<svg
   viewBox="0 0 32 32"
   version="1.1"
   id="svg134"
   sodipodi:docname="signal.svg"
   xml:space="preserve"
   inkscape:export-filename="..\Pictures\signal_5.png"
   inkscape:export-xdpi="3518.0623"
   inkscape:export-ydpi="3518.0623"
   inkscape:version="1.2.1 (9c6d41e410, 2022-07-14)"
   xmlns:inkscape="http://www.inkscape.org/namespaces/inkscape"
   xmlns:sodipodi="http://sodipodi.sourceforge.net/DTD/sodipodi-0.dtd"
   xmlns="http://www.w3.org/2000/svg"
   xmlns:svg="http://www.w3.org/2000/svg"><defs
     id="defs138"><inkscape:path-effect
       effect="powerclip"
       id="path-effect1316"
       is_visible="true"
       lpeversion="1"
       inverse="true"
       flatten="false"
       hide_clip="false"
       message="Use fill-rule evenodd on &lt;b&gt;fill and stroke&lt;/b&gt; dialog if no flatten result after convert clip to paths." /><inkscape:path-effect
       effect="powerclip"
       id="path-effect1312"
       is_visible="true"
       lpeversion="1"
       inverse="true"
       flatten="false"
       hide_clip="false"
       message="Use fill-rule evenodd on &lt;b&gt;fill and stroke&lt;/b&gt; dialog if no flatten result after convert clip to paths." /><inkscape:path-effect
       effect="powerclip"
       id="path-effect1308"
       is_visible="true"
       lpeversion="1"
       inverse="true"
       flatten="false"
       hide_clip="false"
       message="Use fill-rule evenodd on &lt;b&gt;fill and stroke&lt;/b&gt; dialog if no flatten result after convert clip to paths." /><inkscape:path-effect
       effect="powerclip"
       id="path-effect1304"
       is_visible="true"
       lpeversion="1"
       inverse="true"
       flatten="false"
       hide_clip="false"
       message="Use fill-rule evenodd on &lt;b&gt;fill and stroke&lt;/b&gt; dialog if no flatten result after convert clip to paths." /><inkscape:path-effect
       effect="powerclip"
       id="path-effect1300"
       is_visible="true"
       lpeversion="1"
       inverse="true"
       flatten="false"
       hide_clip="false"
       message="Use fill-rule evenodd on &lt;b&gt;fill and stroke&lt;/b&gt; dialog if no flatten result after convert clip to paths." /><clipPath
       clipPathUnits="userSpaceOnUse"
       id="clipPath1280"><rect
         style="display:none;fill:#723f3f;fill-opacity:1;stroke-width:1.39447"
         id="rect1282"
         width="6.9023438"
         height="4.109375"
         x="3.8789062"
         y="-15.484376"
         ry="0.27724987"
         transform="scale(1,-1)"
         clip-path="none"
         d="M 4.1561561,-15.484376 H 10.504 c 0.153597,0 0.27725,0.123653 0.27725,0.27725 v 3.554875 c 0,0.153597 -0.123653,0.27725 -0.27725,0.27725 H 4.1561561 c -0.1535964,0 -0.2772498,-0.123653 -0.2772498,-0.27725 v -3.554875 c 0,-0.153597 0.1236534,-0.27725 0.2772498,-0.27725 z" /><path
         id="lpe_path-effect1300"
         style="fill:#723f3f;fill-opacity:1;stroke-width:1.39447"
         class="powerclip"
         d="M 3.6966095,2.4377518 H 14.569017 V 17.210686 H 3.6966095 Z" /></clipPath><clipPath
       clipPathUnits="userSpaceOnUse"
       id="clipPath1284"><rect
         style="display:none;fill:#723f3f;fill-opacity:1;stroke-width:1.39447"
         id="rect1286"
         width="6.9023438"
         height="4.109375"
         x="3.8789062"
         y="-15.484376"
         ry="0.27724987"
         transform="scale(1,-1)"
         clip-path="none"
         d="M 4.1561561,-15.484376 H 10.504 c 0.153597,0 0.27725,0.123653 0.27725,0.27725 v 3.554875 c 0,0.153597 -0.123653,0.27725 -0.27725,0.27725 H 4.1561561 c -0.1535964,0 -0.2772498,-0.123653 -0.2772498,-0.27725 v -3.554875 c 0,-0.153597 0.1236534,-0.27725 0.2772498,-0.27725 z" /><path
         id="lpe_path-effect1304"
         style="fill:#723f3f;fill-opacity:1;stroke-width:1.39447"
         class="powerclip"
         d="M 2.6516871,3.0432205 H 13.524095 V 17.816154 H 2.6516871 Z" /></clipPath><clipPath
       clipPathUnits="userSpaceOnUse"
       id="clipPath1288"><rect
         style="display:none;fill:#723f3f;fill-opacity:1;stroke-width:1.39447"
         id="rect1290"
         width="6.9023438"
         height="4.109375"
         x="3.8789062"
         y="-15.484376"
         ry="0.27724987"
         transform="scale(1,-1)"
         clip-path="none"
         d="M 4.1561561,-15.484376 H 10.504 c 0.153597,0 0.27725,0.123653 0.27725,0.27725 v 3.554875 c 0,0.153597 -0.123653,0.27725 -0.27725,0.27725 H 4.1561561 c -0.1535964,0 -0.2772498,-0.123653 -0.2772498,-0.27725 v -3.554875 c 0,-0.153597 0.1236534,-0.27725 0.2772498,-0.27725 z" /><path
         id="lpe_path-effect1308"
         style="fill:#723f3f;fill-opacity:1;stroke-width:1.39447"
         class="powerclip"
         d="M 1.6282496,3.6174393 H 12.492845 V 17.398186 H 1.6282496 Z" /></clipPath><clipPath
       clipPathUnits="userSpaceOnUse"
       id="clipPath1292"><rect
         style="display:none;fill:#723f3f;fill-opacity:1;stroke-width:1.39447"
         id="rect1294"
         width="6.9023438"
         height="4.109375"
         x="3.8789062"
         y="-15.484376"
         ry="0.27724987"
         transform="scale(1,-1)"
         clip-path="none"
         d="M 4.1561561,-15.484376 H 10.504 c 0.153597,0 0.27725,0.123653 0.27725,0.27725 v 3.554875 c 0,0.153597 -0.123653,0.27725 -0.27725,0.27725 H 4.1561561 c -0.1535964,0 -0.2772498,-0.123653 -0.2772498,-0.27725 v -3.554875 c 0,-0.153597 0.1236534,-0.27725 0.2772498,-0.27725 z" /><path
         id="lpe_path-effect1312"
         style="fill:#723f3f;fill-opacity:1;stroke-width:1.39447"
         class="powerclip"
         d="M 0.61262465,4.207283 H 11.465501 V 17.316154 H 0.61262465 Z" /></clipPath><clipPath
       clipPathUnits="userSpaceOnUse"
       id="clipPath1296"><rect
         style="display:none;fill:#723f3f;fill-opacity:1;stroke-width:1.39447"
         id="rect1298"
         width="6.9023438"
         height="4.109375"
         x="3.8789062"
         y="-15.484376"
         ry="0.27724987"
         transform="scale(1,-1)"
         clip-path="none"
         d="M 4.1561561,-15.484376 H 10.504 c 0.153597,0 0.27725,0.123653 0.27725,0.27725 v 3.554875 c 0,0.153597 -0.123653,0.27725 -0.27725,0.27725 H 4.1561561 c -0.1535964,0 -0.2772498,-0.123653 -0.2772498,-0.27725 v -3.554875 c 0,-0.153597 0.1236534,-0.27725 0.2772498,-0.27725 z" /><path
         id="lpe_path-effect1316"
         style="fill:#723f3f;fill-opacity:1;stroke-width:1.39447"
         class="powerclip"
         d="M -0.41081285,4.785408 H 10.442063 V 17.894279 H -0.41081285 Z" /></clipPath><clipPath
       clipPathUnits="userSpaceOnUse"
       id="clipPath1374"><rect
         style="fill:#723f3f;fill-opacity:1"
         id="rect1376"
         width="6.4921875"
         height="3.9375"
         x="3.5625"
         y="7.4296875"
         ry="0.27724987"
         d="m 3.8397499,7.4296875 h 5.9376877 c 0.1535965,0 0.2772504,0.1236534 0.2772504,0.2772499 v 3.3830006 c 0,0.153596 -0.1236539,0.27725 -0.2772504,0.27725 H 3.8397499 C 3.6861534,11.367188 3.5625,11.243534 3.5625,11.089938 V 7.7069374 c 0,-0.1535965 0.1236534,-0.2772499 0.2772499,-0.2772499 z" /></clipPath><clipPath
       clipPathUnits="userSpaceOnUse"
       id="clipPath1378"><rect
         style="fill:#723f3f;fill-opacity:1"
         id="rect1380"
         width="6.4921875"
         height="3.9375"
         x="3.5625"
         y="7.4296875"
         ry="0.27724987"
         d="m 3.8397499,7.4296875 h 5.9376877 c 0.1535965,0 0.2772504,0.1236534 0.2772504,0.2772499 v 3.3830006 c 0,0.153596 -0.1236539,0.27725 -0.2772504,0.27725 H 3.8397499 C 3.6861534,11.367188 3.5625,11.243534 3.5625,11.089938 V 7.7069374 c 0,-0.1535965 0.1236534,-0.2772499 0.2772499,-0.2772499 z" /></clipPath><clipPath
       clipPathUnits="userSpaceOnUse"
       id="clipPath1382"><rect
         style="fill:#723f3f;fill-opacity:1"
         id="rect1384"
         width="6.4921875"
         height="3.9375"
         x="3.5625"
         y="7.4296875"
         ry="0.27724987"
         d="m 3.8397499,7.4296875 h 5.9376877 c 0.1535965,0 0.2772504,0.1236534 0.2772504,0.2772499 v 3.3830006 c 0,0.153596 -0.1236539,0.27725 -0.2772504,0.27725 H 3.8397499 C 3.6861534,11.367188 3.5625,11.243534 3.5625,11.089938 V 7.7069374 c 0,-0.1535965 0.1236534,-0.2772499 0.2772499,-0.2772499 z" /></clipPath><clipPath
       clipPathUnits="userSpaceOnUse"
       id="clipPath1386"><rect
         style="fill:#723f3f;fill-opacity:1"
         id="rect1388"
         width="6.4921875"
         height="3.9375"
         x="3.5625"
         y="7.4296875"
         ry="0.27724987"
         d="m 3.8397499,7.4296875 h 5.9376877 c 0.1535965,0 0.2772504,0.1236534 0.2772504,0.2772499 v 3.3830006 c 0,0.153596 -0.1236539,0.27725 -0.2772504,0.27725 H 3.8397499 C 3.6861534,11.367188 3.5625,11.243534 3.5625,11.089938 V 7.7069374 c 0,-0.1535965 0.1236534,-0.2772499 0.2772499,-0.2772499 z" /></clipPath><clipPath
       clipPathUnits="userSpaceOnUse"
       id="clipPath1390"><rect
         style="fill:#723f3f;fill-opacity:1"
         id="rect1392"
         width="6.4921875"
         height="3.9375"
         x="3.5625"
         y="7.4296875"
         ry="0.27724987"
         d="m 3.8397499,7.4296875 h 5.9376877 c 0.1535965,0 0.2772504,0.1236534 0.2772504,0.2772499 v 3.3830006 c 0,0.153596 -0.1236539,0.27725 -0.2772504,0.27725 H 3.8397499 C 3.6861534,11.367188 3.5625,11.243534 3.5625,11.089938 V 7.7069374 c 0,-0.1535965 0.1236534,-0.2772499 0.2772499,-0.2772499 z" /></clipPath></defs><sodipodi:namedview
     id="namedview136"
     pagecolor="#ffffff"
     bordercolor="#000000"
     borderopacity="0.25"
     inkscape:showpageshadow="2"
     inkscape:pageopacity="0.0"
     inkscape:pagecheckerboard="0"
     inkscape:deskcolor="#d1d1d1"
     showgrid="false"
     inkscape:zoom="24.6875"
     inkscape:cx="32.222785"
     inkscape:cy="6.1164557"
     inkscape:window-width="3840"
     inkscape:window-height="2054"
     inkscape:window-x="3829"
     inkscape:window-y="-11"
     inkscape:window-maximized="1"
     inkscape:current-layer="svg134" /><path
     style="fill:#000000;fill-opacity:1;stroke-width:1.76077"
     id="rect540"
     width="0.85287613"
     height="3.108871"
     x="4.5891871"
     y="9.785408"
     ry="0.42643806"
     clip-path="url(#clipPath1390)"
     inkscape:path-effect="#path-effect1316"
     d="m 5.0156252,9.785408 c 0.2362467,0 0.4264381,0.1901914 0.4264381,0.426438 v 2.255995 c 0,0.236247 -0.1901914,0.426438 -0.4264381,0.426438 -0.2362467,0 -0.4264381,-0.190191 -0.4264381,-0.426438 v -2.255995 c 0,-0.2362466 0.1901914,-0.426438 0.4264381,-0.426438 z"
     sodipodi:type="rect"
     transform="matrix(6.1297873,0,0,6.1297873,-27.402897,-41.306086)" /><path
     style="fill:#000000;fill-opacity:1;stroke-width:1.76077"
     id="rect540-6"
     width="0.85287613"
     height="3.108871"
     x="5.6126246"
     y="9.207283"
     ry="0.42643806"
     clip-path="url(#clipPath1386)"
     d="m 6.0390627,9.207283 c 0.2362467,0 0.4264381,0.1901914 0.4264381,0.4264381 v 2.2559949 c 0,0.236247 -0.1901914,0.426438 -0.4264381,0.426438 -0.2362467,0 -0.4264381,-0.190191 -0.4264381,-0.426438 V 9.6337211 c 0,-0.2362467 0.1901914,-0.4264381 0.4264381,-0.4264381 z"
     inkscape:path-effect="#path-effect1312"
     sodipodi:type="rect"
     transform="matrix(6.1297873,0,0,6.1297873,-27.402897,-41.306086)" /><path
     style="fill:#000000;fill-opacity:1;stroke-width:1.76077"
     id="rect540-6-0"
     width="0.86459494"
     height="3.7807465"
     x="6.6282496"
     y="8.6174393"
     ry="0.42643806"
     clip-path="url(#clipPath1382)"
     d="m 7.0546877,8.6174393 h 0.011719 c 0.2362467,0 0.4264381,0.1901913 0.4264381,0.426438 v 2.9278707 c 0,0.236246 -0.1901914,0.426438 -0.4264381,0.426438 h -0.011719 c -0.2362467,0 -0.4264381,-0.190192 -0.4264381,-0.426438 V 9.0438773 c 0,-0.2362467 0.1901914,-0.426438 0.4264381,-0.426438 z"
     inkscape:path-effect="#path-effect1308"
     sodipodi:type="rect"
     transform="matrix(6.1297873,0,0,6.1297873,-27.402897,-41.306086)" /><path
     style="fill:#000000;fill-opacity:1;stroke-width:1.76077"
     id="rect540-6-0-8"
     width="0.87240744"
     height="4.772934"
     x="7.6516871"
     y="8.0432205"
     ry="0.42643806"
     clip-path="url(#clipPath1378)"
     d="m 8.0781252,8.0432205 h 0.019531 c 0.2362467,0 0.4264381,0.1901914 0.4264381,0.4264381 v 3.9200574 c 0,0.236247 -0.1901914,0.426438 -0.4264381,0.426438 h -0.019531 c -0.2362467,0 -0.4264381,-0.190191 -0.4264381,-0.426438 V 8.4696586 c 0,-0.2362467 0.1901914,-0.4264381 0.4264381,-0.4264381 z"
     inkscape:path-effect="#path-effect1304"
     sodipodi:type="rect"
     transform="matrix(6.1297873,0,0,6.1297873,-27.402897,-41.306086)" /><path
     style="fill:#a3a3a3;fill-opacity:1;stroke-width:1.76077"
     id="rect540-6-0-8-1"
     width="0.87240744"
     height="4.772934"
     x="8.6966095"
     y="7.4377518"
     ry="0.42643806"
     clip-path="url(#clipPath1374)"
     d="m 9.1230476,7.4377518 h 0.019531 c 0.2362467,0 0.426438,0.1901913 0.426438,0.426438 v 3.9200582 c 0,0.236246 -0.1901913,0.426438 -0.426438,0.426438 h -0.019531 c -0.2362467,0 -0.4264381,-0.190192 -0.4264381,-0.426438 V 7.8641898 c 0,-0.2362467 0.1901914,-0.426438 0.4264381,-0.426438 z"
     inkscape:path-effect="#path-effect1300"
     sodipodi:type="rect"
     transform="matrix(6.1297873,0,0,6.1297873,-27.402897,-41.306086)" /></svg>
